Patient4_TMGait_0pt5_02_left_23_EMG.mot
version=1
nRows=40
nColumns=33
inDegrees=no
endheader
time	1LAddLong	2LGlutMax	3LGlutMed	4LIliopsoas	5LSemiMemb	6LBicFemLong	7LRecFem	8LVastMed	9LVastLat	10LGasMed	11LTibAnt	12lTibPost	13LPeroneusLong	14LSol	15LExtDigLong	16LFlexDigLong	17RAddLong	18RGlutMax	19RGlutMed	20RIliopsoas	21RSemiMemb	22RBicFemLong	23RRecFem	24RVastMed	25RVastLat	26RGasMed	27RTibAnt	28RTibPost	29RPeroneusLong	30RSol	31RExtDigLong	32RFlexDigLong
29.28	0.014954	-0.10269	-0.053253	0.005341	0.020294	-0.013885	0.030365	-0.00351	-0.032501	0.001373	-0.040588	0.019226	0.011292	0.02594	0.37048	-0.006866	0.022888	0.095062	-0.027924	0.001373	-0.02594	-0.021362	-0.046844	-0.065155	-0.15259	0.026703	0.052643	0.076294	0.56824	-0.085907	-0.002441	-0.009766
29.281	0.009155	-0.11566	-0.038147	-0.007935	0.014191	0.003052	0.02182	0.000305	-0.007324	-0.005188	-0.049744	0.015869	-0.009155	0.041962	0.14832	0.000916	0.034027	0.099945	-0.21469	-0.001221	-0.044556	-0.057983	-0.12009	-0.16098	0.1416	0.03006	-0.10162	0.026703	1.2241	-0.32898	-0.003815	-0.001526
29.282	0.013428	-0.13077	-0.041199	0.007935	0.003967	0.007324	0.027161	-0.002594	0.008392	-0.016327	-0.033264	0.011444	0.012207	0.016022	0.18188	-0.000458	0.039825	0.1268	-0.10498	-0.11688	-0.1033	-0.06897	-0.090942	-0.22537	0.3273	-0.006714	-0.097656	0.014801	0.76385	0.032959	-0.001831	-0.000305
29.283	0.01297	-0.1358	-0.040894	-0.004425	-0.007019	0.012665	0.031738	-0.006866	0.026703	-0.027924	0.028687	0.01709	0.035553	0.023041	0.12268	-0.000763	0.030212	0.18448	-0.059967	-0.13962	-0.22339	-0.020905	-0.11505	-0.1767	0.28336	-0.02121	-0.049438	-0.026398	0.49545	0.12695	-0.001068	-0.002441
29.284	0.002747	-0.20447	-0.046997	0.004425	-0.011292	0.011292	0.03891	0.001373	0.048523	-0.023804	0.050964	0.014954	0.057373	0.069885	0.28076	0.00473	0.00885	0.20294	0.002594	-0.112	-0.24902	0.041199	-0.23056	-0.15625	0.21515	0.00061	0.036316	-0.037231	0.21881	-0.064392	-0.00473	-0.00946
29.285	0.016632	-0.22919	-0.04425	0.001984	-0.010071	-0.007172	0.031281	-0.005493	0.058899	-0.050659	0.086517	0.017242	0.11124	0.1004	0.04715	0.006561	-0.005341	0.19669	0.1535	-0.018158	-0.050049	0.024414	-0.23483	-0.086212	0.16754	0.00824	0.061951	0.066986	-0.1297	-0.21072	-0.000458	-0.013733
29.286	0.021362	-0.22949	-0.046844	0.008087	0.014954	-0.00946	0.029907	-0.003662	0.075531	-0.052643	0.077209	0.016327	0.16251	0.079651	-0.15945	0.010681	0.000153	0.14664	-0.10376	0.11536	0.17227	0.009918	-0.14374	-0.086975	0.071411	0.019531	0.075836	0.036316	-0.28809	0.032806	-0.001068	-0.007324
29.287	0.01297	-0.24979	-0.057068	0.017242	0.02655	0.011902	0.014801	-0.006561	0.083313	-0.040741	0.11032	0.023193	0.090942	0.06546	-0.22064	-0.011444	-0.00061	0.1152	0.48584	0.24689	0.092163	-0.015869	-0.062408	-0.050507	-0.091858	0.014648	0.068512	0.013428	0.030212	0.25696	0.002136	-0.007935
29.288	0.008087	-0.27176	-0.061035	0.012207	0.012054	0.014954	0.028381	-0.011292	0.083313	-0.014801	0.17242	0.014954	0.007629	0.02533	-0.035248	-0.016327	-0.010681	0.098572	0.51315	0.2565	-0.003052	0.049133	0.1564	-0.010071	-0.39169	-0.006561	0.070038	0.002747	-0.12344	0.050507	-0.003204	-0.016479
29.289	0.011139	-0.27451	-0.058289	0.011139	-0.007782	-0.003357	0.029449	-0.002594	0.11444	0.025635	0.11932	0.011597	-0.047302	-0.03479	-0.20233	-0.014343	-0.00824	0.13855	-0.027008	0.12283	-0.10315	0.15503	0.12329	0.026855	-0.52078	-0.009308	0.10468	-0.014954	-0.69809	-0.087128	-0.000153	-0.015259
29.29	0.022736	-0.26581	-0.059052	0.003815	-0.03479	-0.022583	0.013733	0.001678	0.12787	0.021362	0.05188	0.018616	-0.001221	-0.060577	-0.11307	-0.006256	-0.018005	0.016174	-0.48294	0.049744	0.029602	0.12161	0.075073	0.044708	-0.30548	0.009003	0.10773	-0.06485	-0.50522	-0.37018	-0.00061	-0.018158
29.291	0.02121	-0.24811	-0.077972	0.003815	-0.014496	-0.044708	0.043945	-0.005798	0.13504	0.000916	-0.05249	0.023346	0.006409	-0.054932	0.019531	-0.003357	-0.007324	0.091095	-0.56168	0.017242	-0.075684	-0.007629	0.013275	0.000153	-0.098724	-0.023499	0.053253	-0.28061	0.66208	-0.47699	0.000458	-0.024719
29.292	0.008392	-0.24567	-0.066833	0.005646	-0.02243	-0.033569	0.012665	-0.003662	0.14511	-0.017242	-0.078278	0.017395	0.009308	-0.058594	-0.13641	0.001984	0.00351	0.10834	-0.16586	-0.05188	-0.14832	-0.077209	0.021057	-0.062408	-0.076752	-0.050049	0.004272	-0.25818	0.42709	-0.16296	-0.001984	-0.015259
29.293	0.013428	-0.25162	-0.031433	0.004578	0.01236	-0.063019	0.016327	-0.00946	0.14557	-0.047607	-0.12573	0.025177	0.05722	-0.088348	0.031891	0.006866	-0.001678	0.09964	0.17807	0.000153	-0.13733	0.045929	0.00473	-0.08194	-0.034332	-0.016785	0.02243	0.38513	-0.51346	-0.2478	-0.00412	-0.007019
29.294	0.022125	-0.25101	-0.029907	0.01297	0.039215	-0.028381	0.01236	-0.001678	0.14679	-0.052338	-0.092926	0.021515	0.098267	-0.054016	0.066071	0.014648	-0.023346	0.044098	-0.056	0.007629	-0.13275	0.05127	0.021057	0.00351	-0.027618	0.020447	0.019379	0.19806	-0.9021	-0.49377	0.001984	-0.01236
29.295	0.032349	-0.19089	-0.041351	0.015869	0.032654	-0.030975	0.016174	-0.004578	0.13672	-0.04425	-0.063477	0.013733	0.11017	-0.045471	0.021057	0.016174	-0.045013	0.081787	0.62149	-0.033875	0.09613	0.014954	-0.009003	0.06134	-0.027466	0.041962	-0.024872	0.051575	-0.82001	-0.27222	-0.003815	-0.00412
29.296	0.01358	-0.19653	-0.025024	0.01358	0.010529	-0.017395	0.017395	-0.007935	0.13702	-0.031891	-0.009613	0.021667	0.081329	0.042572	0.070038	0.014954	0.000153	0.058594	0.37781	-0.031738	0.045624	-0.015411	0.005188	0.002747	-0.013123	0.017853	0.001831	-0.19913	-0.73685	0.28564	-0.003967	0.003204
29.297	0.003052	-0.16876	-0.001526	0.02182	0.011749	-0.00824	0.025024	-0.004272	0.13992	-0.006714	0.080109	0.02182	0.006714	0.021667	0.078888	0.017242	-0.003357	0.020294	0.15823	-0.050659	0.063782	-0.01709	-0.032959	0.012817	0.042419	0.000763	0.00351	-0.24689	0.33905	0.34073	-0.001373	-0.005188
29.298	0.029602	-0.16754	-0.027924	0.006409	0.011292	-0.020599	0.015411	-0.005493	0.15045	-0.00824	0.1004	0.019226	-0.021057	-0.011292	0.062408	0.020294	-0.011444	0.041656	0.21652	-0.030212	0.23926	-0.10742	-0.029144	0.036163	0.038147	-0.008392	-0.001678	0.042877	0.61035	0.29984	-0.001373	-0.00824
29.299	0.018158	-0.1564	-0.050201	0.010834	-0.000153	-0.008087	0.020599	-0.004272	0.14679	-0.035706	0.083923	0.027924	0.024261	-0.003052	0.079956	0.020752	-0.005493	0.009766	0.18982	-0.000153	0.12039	-0.084686	0.044403	-0.002899	0.027466	-0.054321	-0.02121	-0.019073	0.76782	0.4657	-0.000458	-0.011749
29.3	-0.004425	-0.12848	-0.040131	0.010529	-0.019073	0.012817	0.020752	-0.011902	0.14938	-0.020599	-0.012054	0.031738	0.05661	0.031433	0.0383	0.022583	-0.017853	0.00885	0.17151	0.00412	0.020599	-0.037994	-0.003662	-0.036469	0.028381	-0.048981	-0.018921	-0.025024	0.6189	0.045929	-0.003967	-0.020447
29.301	0.001526	-0.089111	-0.027924	0.00473	-0.038147	0.000916	0.019379	-0.003662	0.14847	-0.022736	-0.026855	0.028534	0.03418	0.050964	-0.012512	0.025482	-0.015259	0.001678	0.094147	0.028687	-0.13397	0.006561	0.014038	-0.029297	0.013733	-0.022736	0.001373	0.10605	0.44769	-0.53818	-0.001526	-0.010529
29.302	-0.009918	-0.059357	-0.027008	-0.004425	-0.021515	-0.026703	0.021667	-0.006866	0.15381	-0.003052	0.038605	0.010071	0.010834	0.011292	0.016174	0.01709	0.023804	-0.022125	0.16129	0.002747	-0.021973	0.027771	-0.015564	-0.024872	0.002289	0.01358	0.029602	0.22278	0.31097	-0.78644	0.000305	-0.018616
29.303	-0.000458	-0.044098	-0.050659	0.001678	0.008698	-0.052948	0.017242	-0.005341	0.15259	0.011902	-0.035553	0.014191	0.040283	0.042267	0.045013	0.018158	0.03952	0.004578	0.06134	-0.007019	-0.025635	0.13092	-0.011749	-0.046844	-0.003357	0.061646	0.041656	0.016785	-0.018005	-0.48035	0.000153	-0.010223
29.304	0.006104	-0.040741	-0.059052	0.006714	0.036163	-0.062714	0.032196	-0.005951	0.14908	0.014191	-0.10544	0.001068	0.069122	-0.029907	0.018616	0.028229	0.049133	0.001984	0.031738	0.006866	-0.06073	0.12634	0.012054	-0.1268	0.005341	0.066833	-0.001068	-0.073547	-0.30487	0.53986	-0.000153	-0.011749
29.305	0.011902	-0.039063	-0.058594	0.010223	0.019226	-0.056305	0.014191	-0.007782	0.15366	0.014496	-0.095062	0.018616	0.072632	-0.049286	-0.005798	0.02655	-0.00824	-0.005646	0.10696	0.008087	-0.14725	0.096893	-0.001678	-0.06485	0.034332	0.074005	0.000458	0.24307	-0.59418	0.80307	-0.002289	-0.011749
29.306	0.008087	-0.026398	-0.002899	0.00473	-0.006561	-0.019226	0.025177	-0.010986	0.1445	-0.003052	-0.058136	0.019531	0.066071	-0.011444	0.007782	0.016785	-0.08728	0.019226	0.23773	0.044098	0.14465	0.1004	-0.011902	0.022278	0.029907	0.001373	0.004578	0.014648	-0.35446	0.2121	-0.001221	-0.006409
29.307	0.013123	-0.025787	-0.002136	0.01297	-0.001526	-0.021362	0.026093	0	0.14771	0.010681	-0.026093	0.034027	0.045013	0.002441	-0.021057	0.029602	-0.059509	0.00885	0.25299	0.037079	0.00473	0.12421	0.062256	-0.025024	0.022888	-0.11414	0.018158	-0.068665	-0.039825	0.009613	-0.001526	-0.018616
29.308	0.018463	-0.008698	-0.009766	0.020752	0.010071	-0.038147	0.035248	-0.007324	0.15182	0.007629	-0.006104	0.003967	0.058441	-0.029144	-0.035706	0.022278	-0.029602	-0.045471	0.02533	0.037231	-0.18631	0.082397	0.071564	0.050201	0.034637	-0.16571	0.032654	-0.09491	0.31464	-0.02533	-0.001526	-0.022125
29.309	0.016632	-0.016632	-0.028076	0.005493	0.017242	-0.01358	0.021667	-0.009155	0.15045	-0.014496	0.004272	0.011139	0.045319	-0.048981	-0.02655	0.022278	-0.021515	-0.01236	-0.044556	0.020599	-0.035706	-0.025024	0.036316	0.093079	0.10468	-0.12711	0.019531	-0.14786	0.46417	-0.34958	-0.002441	-0.024109
29.31	0.016937	-0.023193	-0.034637	0.016022	-0.010223	0.014343	0.010529	-0.012512	0.13626	-0.006561	0.003052	0.024109	0.067902	-0.076752	0	0.01358	-0.00946	-0.043793	-0.067291	0.018921	0.052185	-0.045471	0.036316	0.009308	0.11063	-0.071106	-0.011597	-0.096741	0.38101	-0.23544	-0.001678	-0.010376
29.311	0.015869	-0.012665	-0.038605	0.005188	-0.005188	0.010071	0.019836	-0.009613	0.14328	-0.030212	-0.00473	0.011139	0.10757	-0.066528	0.016937	0.021057	0.004578	-0.058899	0.13092	-0.023041	0.023193	-0.020142	0.032654	-0.000153	0.040741	-0.035095	-0.032501	0.10651	-0.020142	0.14374	-0.002747	0.009308
29.312	0.009003	0.000153	-0.029297	0.002289	-0.007629	-0.010071	0.028229	-0.007019	0.14679	-0.009155	0.014648	0.021057	0.13825	-0.071411	0.033264	0.017395	0.008392	-0.052032	0.02243	-0.027924	0.054932	-0.035706	0.059509	-0.038605	-0.056458	0.074005	-0.022125	0.18219	-0.36743	-0.28809	0.000763	0.003967
29.313	0.018005	-0.014038	-0.053253	0.002747	-0.026855	-0.069427	0.014801	-0.013428	0.14587	-0.032806	0.039368	0.011139	0.091095	-0.039368	0.032654	0.007782	0.018311	-0.054779	0.046539	-0.009766	0.041351	-0.041046	0.028839	-0.001678	-0.034637	0.088196	-0.021973	0.04364	-0.32227	-0.45731	-0.002136	-0.006256
29.314	0.008392	-0.010681	-0.061188	-0.000153	0.012207	-0.060272	0.018463	-0.006866	0.13962	-0.062256	0.029907	0.026245	0.11841	-0.088501	0.020447	0.010071	0.024109	-0.007782	0.005951	-0.045929	0.040436	-0.062408	-0.016022	-0.020599	0.071106	-0.052795	0.005341	-0.53848	-0.20233	-0.052795	-0.003357	-0.010223
29.315	0.005188	0.006561	-0.066681	0.005035	0.021515	-0.069885	0.031433	-0.009613	0.14877	-0.0737	0.02121	0.004578	0.080872	-0.083618	0.013275	0.002136	0.046082	-0.045929	0.073395	-0.084686	-0.00885	0.016632	-0.032654	-0.082397	0.12711	-0.045624	0.02182	-0.31708	-0.088043	0.019379	-0.003357	-0.01297
29.316	0.011139	-0.007629	-0.06897	0.007629	0.012665	-0.057678	0.023499	-0.005798	0.14725	-0.064697	0.022278	0.014801	0.095062	-0.015259	0.005798	0.00412	-0.001678	-0.059509	0.11978	-0.046692	-0.032501	0.088654	0.010529	-0.090637	0.1651	0.035858	0.046234	0.14847	0.029449	0.44403	-0.001373	-0.007935
29.317	0.001068	-0.004425	-0.041351	0.010223	0.004578	-0.046387	0.015717	-0.008392	0.14969	-0.055237	0.017242	0.019531	0.079956	-0.053558	0.006866	0.011597	-0.00824	-0.023651	0.079956	-0.038147	0.016174	0.070343	0.11353	0.029602	0.067139	0.066986	0.050201	0.23514	0.14145	0.6987	-0.001373	-0.004578
29.318	-0.016174	0.005493	-0.036469	0.006714	0.013733	-0.057373	0.024414	-0.006409	0.15366	-0.037231	0.019836	0.007324	0.10239	-0.019226	0.005188	0.010071	0.005035	-0.044556	0.035858	-0.014038	-0.012512	-0.018311	0.11902	0.044861	0.036774	0.036011	0.029907	0.26352	0.12558	0.40649	-0.002747	-0.011902
29.319	0.003662	0.025635	-0.017853	0.013428	0.009155	-0.024414	0.025787	-0.007935	0.14084	-0.040894	0.016327	0.010376	0.059357	-0.006104	-0.000916	0.003815	0.010529	-0.07431	0.013733	-0.032043	-0.001068	-0.03479	0.078583	0.057526	-0.026703	0.034637	0.049286	0.12497	-0.095825	0.39093	-0.00412	-0.016785
